<?xml version="1.0" encoding="UTF-8"?>
<!-- Default brand mark for maps that configure neither logo: nor icon:.
     Editable source for assets/placeholder-logo.png (render with:
     rsvg-convert -w 1024 -h 1024 placeholder-logo.svg -o placeholder-logo.png).
     Same bicycle as the favicon; full-bleed green field so it masks
     cleanly as a PWA icon, bike centred at 70% width (15% margin). -->
<svg xmlns="http://www.w3.org/2000/svg" viewBox="0 0 1024 1024" width="1024" height="1024">
  <rect width="1024" height="1024" fill="#3a6b3e"/>
  <g transform="translate(153.6,146.133) scale(29.8667)" fill="#faf8f3">
    <path d="M19 10c-.56 0-1.09.11-1.59.28L14.46 4.5H11V6h2.54l.88 1.72L12 13.13l-1.77-4.18c.27-.1.51-.37.51-.7c0-.41-.33-.75-.74-.75H8c-.42 0-.76.34-.76.75S7.58 9 8 9h.61l2.25 5.25h-.94C9.56 11.85 7.5 10 5 10c-2.76 0-5 2.24-5 5s2.24 5 5 5c2.5 0 4.56-1.85 4.92-4.25h2.58l2.79-6.32l.79 1.53A4.98 4.98 0 0 0 14 15c0 2.76 2.24 5 5 5s5-2.24 5-5s-2.24-5-5-5M5 18.5c-1.93 0-3.5-1.57-3.5-3.5s1.57-3.5 3.5-3.5c1.67 0 3.07 1.18 3.41 2.75H4v1.5h4.41A3.495 3.495 0 0 1 5 18.5m14 0c-1.93 0-3.5-1.57-3.5-3.5c0-1.08.5-2.03 1.27-2.67l1.8 3.52l1.32-.72l-1.79-3.5c.29-.07.59-.13.9-.13c1.93 0 3.5 1.57 3.5 3.5s-1.57 3.5-3.5 3.5"/>
  </g>
</svg>
